<?xml version="1.0" encoding="UTF-8"?>
<svg id="_图层_1" data-name="图层 1" xmlns="http://www.w3.org/2000/svg" viewBox="0 0 173.04 161.97">
  <defs>
    <style>
      .cls-1 {
        fill: #ae5048;
      }

      .cls-2 {
        fill: #a4a3e0;
      }

      .cls-3 {
        fill: #0050f6;
      }

      .cls-4 {
        fill: #7bfea7;
      }

      .cls-5 {
        fill: #00fe48;
      }

      .cls-6 {
        fill: #aec048;
      }

      .cls-7 {
        fill: #b7def2;
      }

      .cls-8 {
        fill: #aefe48;
      }

      .cls-9 {
        fill: #7bacf8;
      }
    </style>
  </defs>
  <g>
    <g>
      <path class="cls-8" d="M109.02,80.76c18.9-.26,37.89.21,56.77.4,10.39,3.22,9.4,17.66-1.65,19.15l-66.14.11c-2.19-3.73-6.91-12.89-10.31-14.86-.19-1.48,2.27-3.34,3.36-3.6l.35-.36c3.79-1.56,12.85-1.6,17.12-1.31l.5.47Z"/>
      <g>
        <path class="cls-6" d="M109.02,80.76c-4.68.06-13.51-.36-17.48,1.3-.21.09-.48-.11-.5-.1-.13.02-.26.03-.38.01-.73-.09-1.22-3.04-1.27-3.82-.51-.06-.79-.19-.75-.75.13-.38.45-.53.98-.43-.15-1.33.35-2.54.87-3.75,1.57-3.6,4.23-8.32,6.43-11.58l.58-.05c9.21-16.23,18.91-32.21,28.16-48.43,7.49-8.61,20.79-.32,16.4,10.16l-33.05,57.44Z"/>
        <path class="cls-1" d="M97.52,61.58c-1.75,3.09-6.82,11.15-7.37,14.08-.28,1.52.61,1.95-1.5,1.74-.39.8-3.56.08-3.12-.96.09-.19.89-2.89.93-3.26.87-7.29-4.28-11.75-11.24-11.6L47.25,12.98c-3.21-10.38,9.65-17.68,16.82-9.39l33.45,57.99Z"/>
      </g>
    </g>
    <g>
      <path class="cls-2" d="M75.23,61.58c1.27-.96,3.95-.14,5.43.44,4.84,1.92,6.82,6.25,6.28,11.27-.09.81-.59,3.1-1.4,3.15.13.15.32.38.25.49-.4.67-2.63,2.71-3.34,3.1l-.51-.24c-.02.55-.39.88-1.13.99-5.07.88-10.24,1.11-15.51.68-.54.21-.9.13-1.09-.23-18.63.04-37.24-.04-55.85-.24-10.63-1.64-11.19-15.91-1.21-19.07,22.63-.81,45.41-.12,68.09-.35Z"/>
      <path class="cls-7" d="M64.2,81.24c-.08,0-.16,0-.24,0-18.26.26-36.54-.21-54.8.02-.32.14-.69-.24-.81-.26l55.85.24Z"/>
    </g>
  </g>
  <g>
    <path class="cls-3" d="M81.94,79.8c1.3.4,2.14,3.57,1.2,4.55.47.27.57.74.31,1.43-1.89,5.12-4.38,10.01-7.47,14.67l-.51.2c-9.11,16.16-18.88,31.97-27.94,48.16-1.73,2-3.52,2.98-6.1,3.37-1.11.11-2.24.12-3.36,0-6.19-1.06-9.35-7.16-7.38-13.01l33.26-57.94h.24c.17,0,.61-.24,1.06-.25,4.52-.08,12.92.85,16.68-1.19Z"/>
    <path class="cls-9" d="M41.43,152.19c-1.56.24-1.79.27-3.36,0h3.36Z"/>
    <g>
      <path class="cls-5" d="M87.69,85.56l.56-.21c2.34.9,8.62,11.78,9.96,14.5l-.22.57c9.38,15.96,18.28,32.23,27.68,48.18,2.1,5.85-1.07,12.12-7.31,13.18-1.11.12-2.24.11-3.36,0-2.85-.45-4.93-1.69-6.57-4.09l-32.98-57.03c.05-.09,0-.44.14-.69,2.25-4,7.46-11.29,7.53-15.61.89-.95,4.24-.06,4.55,1.2Z"/>
      <path class="cls-4" d="M118.37,161.78c-1.58.27-1.81.24-3.36,0h3.36Z"/>
    </g>
  </g>
</svg>